# xmcd CD database file
#
# Track frame offsets:
#	150
#	12565
#	35375
#	60845
#	78320
#	106775
#	141125
#	158935
#	179600
#	193250
#
# Disc length: 2748 seconds
#
# Revision: 0
# Processed by: cddbd v1.5.2PL0 Copyright (c) Steve Scherf et al.
# Submitted via: CDex 1.60beta1-cs1
#
DISCID=7e0aba0a
DTITLE=Vítor Assis Brasil - DESENHOS [1966]
DYEAR=1966
DGENRE=Jazz
TTITLE0=Naquela Base (João Donato)
TTITLE1=Devaneio (Vítor Assis Brasil)
TTITLE2=Primavera (Vinícius de Moraes and Carlos Lyra)
TTITLE3=Simplesmente (Édson Lôbo)
TTITLE4=Feitiço da Vila (Noel Rosa)
TTITLE5=Dueto (Vítor Assis Brasil)
TTITLE6=Amor de nada (Marcos and Paulo Sérgio Valle)
TTITLE7=Eugenie (Vítor Assis Brasil)
TTITLE8=Minha Saudade (João Donato)
TTITLE9=Desenhos (Vítor Assis Brasil)
EXTD=YEAR: 1966
EXTT0=
EXTT1=
EXTT2=
EXTT3=
EXTT4=
EXTT5=
EXTT6=
EXTT7=
EXTT8=
EXTT9=
PLAYORDER=
